<svg id="eZCGIAakY1N1" xmlns="http://www.w3.org/2000/svg" xmlns:xlink="http://www.w3.org/1999/xlink" viewBox="0 0 510 980" shape-rendering="geometricPrecision" text-rendering="geometricPrecision"><g transform="translate(393.048984 323.82399)"><path d="M0,189c-13.4-5.3-26.7-10.6-39.6-15.5-12.9-4.8-25.3-9.1-36.3-15.8-11.1-6.8-20.8-16-30.1-24.8s-18.1-17.3-28.5-25.7c-10.4-8.3-22.3-16.6-31.3-27.4-9-10.7-15.1-24-18.5-37.7-3.3-13.8-4-27.9-4.7-42.1L0,0Z" transform="matrix(2.301607 0 0 2.707768 384.782236-378.999011)" fill="#ffd2cc"/><path d="M0,94.5c-6.7-2.7-13.4-5.3-19.8-7.7s-12.6-4.6-18.2-8c-5.5-3.3-10.4-7.9-15-12.3-4.6-4.5-9-8.7-14.2-12.9s-11.2-8.3-15.7-13.7-7.5-12-9.2-18.9c-1.7-6.8-6.41099-30.400382-6.71099-37.500382C-96.654371,-49.401103,18.981357,-44.638272,0,0Z" transform="matrix(.362386-2.17355 6.206296 1.034746 288.211269-347.757466)" fill="#ffcc5f"/></g><g transform="translate(-24.770412 991.490638)"><path d="M0,-189c13.1,5.8,26.1,11.5,39.8,14.5c13.7,2.9,28.1,3.1,40,8.7c12,5.7,21.5,16.9,30.6,27.4c9,10.6,17.5,20.5,24.1,31.2c6.6,10.6,11.3,22,20.5,32.6c9.2,10.5,22.8,20.2,29.3,32.5c6.4,12.3,5.5,27.2,4.7,42.1L0,0Z" fill="#8ab7dd"/><path d="M0,-94.5c6.5,2.9,13.1,5.8,19.9,7.2c6.9,1.5,14,1.6,20,4.4s10.8,8.4,15.3,13.7s8.7,10.2,12,15.6c3.3,5.3,5.7,11,10.3,16.3s11.4,10.1,14.6,16.3c3.2,6.1,2.8,13.6,2.4,21L0,0Z" fill="#ffcc5f"/></g></svg>
