<svg id="ewa7heJ2BLH1" xmlns="http://www.w3.org/2000/svg" xmlns:xlink="http://www.w3.org/1999/xlink" viewBox="0 0 1920 1080" shape-rendering="geometricPrecision" text-rendering="geometricPrecision"><rect width="838.542927" height="531.148673" rx="0" ry="0" transform="matrix(2.289686 0 0 2.033329 0-.85)" fill="#fff8e9"/><g transform="matrix(3.257636-4.944807-3.296832-2.171951 2516.925812 316.933048)"><path d="M0,206c-29.2,7.2-36.02697,55.205012-67.12697,51.105012s-20.466643-13.903363-38.966643-38.503363-31.739378-69.331884-38.639378-99.531884-56.455044-94.949352-66.255044-121.549352L0,0Z" transform="translate(.641092 0.63347)" fill="#ffd2cc"/><path d="M0,103c-14.6,3.6-29.2,7.2-44.8,5.1-15.5-2.1-41.455119,6.68743-50.655119-5.61257C-104.755119,90.18743,-97.3,56.8,-100.7,41.7c-3.5-15.1-8.4-28.4-13.3-41.7L0,0Z" transform="matrix(1.589521 0 0 1.349048 33.602697-18.974594)" fill="#ffcc5f"/></g><g transform="matrix(-.08402-2.447773 1.52819-.052456-60.462584-18.092338)"><path d="M0,206c-29.2,7.2-58.4,14.3-89.5,10.2s-64.1-19.5-82.6-44.1-22.4-58.5-29.3-88.7-16.8-56.8-26.6-83.4L0,0Z" fill="#8ab7dd"/><path d="M0,103c-14.6,3.6-29.2,7.2-44.8,5.1-15.5-2.1-32-9.8-41.2-22.1-9.3-12.3-11.3-29.2-14.7-44.3-3.5-15.1-8.4-28.4-13.3-41.7L0,0Z" fill="#ffcc5f"/></g><g transform="matrix(3.065118 0 0 1-14.78537 1091.816314)"><path d="M0,-243.4c33.4,2.4,66.8,4.8,92.2,20.7c25.5,16,43,45.4,59.8,70.7c16.9,25.2,33,46.2,43.9,70.9C206.7,-56.5,212.4,-28.2,218,0L0,0Z" fill="#8ab7dd"/><path d="M0,-121.7c16.7,1.2,33.4,2.4,46.1,10.4c12.7,7.9,21.5,22.7,29.9,35.3s16.5,23.1,21.9,35.4c5.5,12.4,8.3,26.5,11.1,40.6L0,0Z" fill="#ffd2cc"/></g><path d="" fill="none" stroke="#3f5787" stroke-width="3.84"/></svg>
