<svg id="exy2NEGHSLX1" xmlns="http://www.w3.org/2000/svg" xmlns:xlink="http://www.w3.org/1999/xlink" viewBox="0 0 720 900" shape-rendering="geometricPrecision" text-rendering="geometricPrecision"><rect width="838.542927" height="531.148673" rx="0" ry="0" transform="matrix(8.333418 0 0 29.385919 0-7980.925125)" fill="#fff8e9"/><g transform="matrix(.014928 1.916978-1.53551 0.011957 840.036371 436.909514)"><path d="M0,206c-29.2,7.2-22.88833-39.84263-53.98833-43.94263s-33.605283,81.144279-52.105283,56.544279-31.739378-69.331884-38.639378-99.531884-56.455044-94.949352-66.255044-121.549352L0,0Z" transform="matrix(3.22385 0 0 1 254.159992 0.63347)" fill="#ffd2cc"/><path d="M0,103c-14.6,3.6-29.2,7.2-44.8,5.1-15.5-2.1-32-9.8-41.2-22.1-9.3-12.3-11.3-29.2-14.7-44.3-3.5-15.1-8.4-28.4-13.3-41.7L0,0Z" transform="matrix(5.184401 0 0 1.349048 238.507148-19.734919)" fill="#ffcc5f"/></g><g transform="matrix(-.041177-1.19962 1.817713-.062393-111.193061-23.656734)"><path d="M0,206c-29.2,7.2-58.4,14.3-89.5,10.2s-64.1-19.5-82.6-44.1-22.4-58.5-29.3-88.7-16.8-56.8-26.6-83.4L0,0Z" fill="#8ab7dd"/><path d="M0,103c-14.6,3.6-29.2,7.2-44.8,5.1-15.5-2.1-32-9.8-41.2-22.1-9.3-12.3-11.3-29.2-14.7-44.3-3.5-15.1-8.4-28.4-13.3-41.7L0,0Z" fill="#ffcc5f"/></g><g transform="matrix(1.395934 0.178781-.11129 0.868958-40.693217 917.554025)"><path d="M0,-243.4c33.4,2.4,66.8,4.8,92.2,20.7c25.5,16,43,45.4,59.8,70.7c16.9,25.2,33,46.2,43.9,70.9C206.7,-56.5,212.4,-28.2,218,0L0,0Z" fill="#8ab7dd"/><path d="M0,-121.7c16.7,1.2,33.4,2.4,46.1,10.4c12.7,7.9,21.5,22.7,29.9,35.3s16.5,23.1,21.9,35.4c5.5,12.4,8.3,26.5,11.1,40.6L0,0Z" fill="#ffd2cc"/></g></svg>
