<svg id="visual" viewBox="0 0 900 600" width="900" height="600" xmlns="http://www.w3.org/2000/svg" xmlns:xlink="http://www.w3.org/1999/xlink" version="1.1"><rect x="0" y="0" width="900" height="600" fill="#ffffff"></rect><g transform="translate(458.9164470270546 332.3432841452774)"><path d="M114.5 -164.1C146.6 -134.2 169.9 -98.5 194.8 -55.4C219.7 -12.3 246.3 38.2 233 74.6C219.6 110.9 166.2 133.1 120.7 143.3C75.2 153.6 37.6 151.8 3.5 146.9C-30.6 142.1 -61.1 134.1 -99 121.4C-136.9 108.8 -182.1 91.3 -214.4 54.8C-246.6 18.3 -266 -37.2 -246.7 -75.1C-227.4 -113 -169.6 -133.4 -122 -158.3C-74.5 -183.1 -37.2 -212.6 2 -215.3C41.1 -218 82.3 -193.9 114.5 -164.1" fill="#ffd2cc"></path></g></svg>