<svg id="eRnAdcgjpho1" xmlns="http://www.w3.org/2000/svg" xmlns:xlink="http://www.w3.org/1999/xlink" viewBox="0 0 450 1000" shape-rendering="geometricPrecision" text-rendering="geometricPrecision"><rect width="900" height="600" rx="0" ry="0" transform="matrix(.718638 0 0 2.288489-31.308307-368.441084)" fill="#001220"/><g transform="matrix(.637491 0 0 1.080072 450 0)"><path d="M0,206c-29.2,7.2-58.4,14.3-89.5,10.2s-64.1-19.5-82.6-44.1-22.4-58.5-29.3-88.7-16.8-56.8-26.6-83.4L0,0Z" fill="#96446e"/><path d="M0,103c-14.6,3.6-29.2,7.2-44.8,5.1-15.5-2.1-32-9.8-41.2-22.1-9.3-12.3-11.3-29.2-14.7-44.3-3.5-15.1-8.4-28.4-13.3-41.7L0,0Z" fill="#fbae3c"/></g><g transform="matrix(1.397487 0 0 0.692203 0 1004.652316)"><path d="M0,-243.4c33.4,2.4,66.8,4.8,92.2,20.7c25.5,16,43,45.4,59.8,70.7c16.9,25.2,33,46.2,43.9,70.9C206.7,-56.5,212.4,-28.2,218,0L0,0Z" fill="#96446e"/><path d="M0,-121.7c16.7,1.2,33.4,2.4,46.1,10.4c12.7,7.9,21.5,22.7,29.9,35.3s16.5,23.1,21.9,35.4c5.5,12.4,8.3,26.5,11.1,40.6L0,0Z" fill="#fbae3c"/></g></svg>
